<svg width="24" height="24" viewBox="0 0 24 24" fill="none" xmlns="http://www.w3.org/2000/svg">
<g clip-path="url(#clip0_602_3643)">
<path d="M8.50185 13.3254L14.9795 19.8165C15.2233 20.0608 15.6191 20.0612 15.8633 19.8174C16.1077 19.5736 16.1081 19.1779 15.8643 18.9335L9.38619 12.4419C9.1425 12.1982 9.1425 11.8017 9.38666 11.5576L15.8643 5.06647C16.1081 4.82212 16.1077 4.4264 15.8633 4.18259C15.7414 4.06084 15.5816 4 15.4219 4C15.2617 4 15.1016 4.06119 14.9795 4.18353L8.50232 10.6742C7.77125 11.4052 7.77125 12.5948 8.50185 13.3254Z" fill="#383838"/>
</g>
<defs>
<clipPath id="clip0_602_3643">
<rect width="16" height="16" fill="white" transform="matrix(-1 0 0 -1 20 20)"/>
</clipPath>
</defs>
</svg>
