<svg width="23" height="19" viewBox="0 0 23 19" fill="none" xmlns="http://www.w3.org/2000/svg">
<path d="M20.6356 1.72821C19.535 0.613769 18.0175 0 16.3625 0C13.469 0 11.973 1.48881 11.2275 2.73774C11.2182 2.75323 11.2091 2.76876 11.2 2.78425C11.1909 2.76876 11.1818 2.75323 11.1725 2.73774C10.427 1.48881 8.93095 0 6.0375 0C4.38248 0 2.86497 0.613769 1.76444 1.72826C0.610138 2.89721 0 4.49737 0 6.35574C0 10.3019 3.50792 12.9183 6.60284 15.2267C8.14498 16.3769 9.60159 17.4633 10.5184 18.6023C10.6845 18.8087 10.9351 18.9287 11.2 18.9287C11.4649 18.9287 11.7155 18.8087 11.8817 18.6024C12.3532 18.0165 13.0087 17.3936 13.9446 16.6419C14.3213 16.3393 14.3814 15.7885 14.0788 15.4117C13.7762 15.035 13.2254 14.9748 12.8487 15.2775C12.1884 15.8078 11.6483 16.2874 11.2004 16.7432C10.2113 15.7349 8.95939 14.8012 7.64912 13.8239C4.74893 11.6608 1.75 9.42397 1.75 6.35574C1.75 3.64394 3.51308 1.75 6.0375 1.75C7.67896 1.75 8.89101 2.36753 9.63987 3.5854C10.2344 4.55214 10.3269 5.55844 10.3275 5.56465C10.3626 6.02048 10.7426 6.37438 11.1998 6.37438C11.657 6.37438 12.037 6.02433 12.0721 5.5685C12.073 5.55844 12.1655 4.55214 12.76 3.5854C13.509 2.36753 14.721 1.75 16.3625 1.75C18.8869 1.75 20.65 3.64394 20.65 6.35574C20.65 8.8949 18.5827 10.8636 16.3487 12.6127C15.9683 12.9106 15.9013 13.4606 16.1992 13.8411C16.497 14.2216 17.0471 14.2885 17.4276 13.9906C18.4903 13.1585 19.8372 12.0341 20.828 10.7137C21.8858 9.30392 22.4 7.87841 22.4 6.35574C22.4 4.49737 21.7899 2.89721 20.6356 1.72821Z" fill="#6B6B6B"/>
</svg>
