<svg width="379" height="340" viewBox="0 0 379 340" fill="none" xmlns="http://www.w3.org/2000/svg">
<path d="M240.91 26.1705C246.038 17.5101 250.949 8.71115 256.293 0.183075C273.085 28.3612 289.371 56.8403 305.999 85.1208C330.278 126.901 354.76 168.566 378.979 210.382C339.684 210.647 300.384 210.382 261.084 210.514C259.609 210.442 258.015 210.857 256.612 210.31C255.523 208.257 256.215 205.688 255.914 203.425C254.62 182.312 247.886 161.561 236.541 143.71C226.394 127.298 212.245 113.504 195.995 103.164C190.512 112.95 184.692 122.543 179.059 132.245C163.977 158.335 148.636 184.274 133.566 210.37C146.151 210.647 158.753 210.412 171.35 210.49C197.439 210.49 223.529 210.484 249.619 210.49C251.774 210.52 254 210.171 256.095 210.809C256.715 212.723 256.233 214.769 256.173 216.731C255.451 238.512 248.897 260.046 237.474 278.594C227.285 295.506 212.925 309.782 196.302 320.38C175.954 333.031 152.055 340.223 128.029 339.904C101.476 340.157 74.9829 331.484 53.443 316.011C38.0359 305.015 25.1926 290.517 15.9965 273.984C5.3379 254.966 -0.313386 233.113 0.107903 211.297C-0.25922 182.125 10.4174 153.183 28.8699 130.68C38.5354 118.83 50.3977 108.803 63.5539 101.015C78.0282 92.716 94.0492 87.0347 110.606 84.85C119.158 83.5801 127.837 83.8449 136.449 84.0255C157.507 85.1389 178.054 92.1323 196.007 103.074C211.047 77.4835 225.949 51.8089 240.91 26.1705Z" fill="#B9B9B9"/>
</svg>
