<svg width="23" height="23" viewBox="0 0 23 23" fill="none" xmlns="http://www.w3.org/2000/svg">
<path d="M21.6233 15.726L18.9037 13.0287C18.5605 12.6884 18.0065 12.6906 17.6663 13.0337C17.326 13.3769 17.3282 13.9309 17.6713 14.2712L20.1768 16.7562H19.109C16.5822 16.7562 14.2506 15.6629 12.7122 13.7566C12.4087 13.3805 11.8578 13.3217 11.4818 13.6252C11.1057 13.9287 11.0469 14.4796 11.3504 14.8557C13.2227 17.1756 16.0506 18.5062 19.109 18.5062H20.0886L17.6713 20.9037C17.3282 21.2439 17.3259 21.7979 17.6663 22.1411C17.8374 22.3135 18.0624 22.3999 18.2875 22.3999C18.5102 22.3999 18.7331 22.3154 18.9037 22.1462L21.6233 19.4488C22.1242 18.9521 22.4 18.2909 22.4 17.5874C22.4 16.8839 22.1242 16.2228 21.6233 15.726Z" fill="#6B6B6B"/>
<path d="M21.6233 2.95101L18.9037 0.253691C18.5605 -0.0865967 18.0065 -0.0843654 17.6662 0.258766C17.326 0.601897 17.3282 1.1559 17.6713 1.49619L20.0886 3.89369H19.109C15.5361 3.89369 12.2284 5.77717 10.4766 8.80905L10.1058 9.4509L9.50744 8.4153C7.75565 5.38342 4.44789 3.49994 0.875 3.49994C0.391738 3.49994 0 3.89168 0 4.37494C0 4.8582 0.391738 5.24994 0.875 5.24994C3.82489 5.24994 6.55204 6.7983 7.99216 9.29078L9.09519 11.1999L7.99212 13.1091C6.55204 15.6016 3.82489 17.1499 0.875 17.1499C0.391738 17.1499 0 17.5417 0 18.0249C0 18.5082 0.391738 18.8999 0.875 18.8999C4.44789 18.8999 7.75561 17.0165 9.50744 13.9846L10.8558 11.6509C10.8607 11.6427 10.8655 11.6344 10.8701 11.6261L11.9919 9.68453C13.432 7.19205 16.1592 5.64369 19.109 5.64369H20.1768L17.6713 8.12869C17.3282 8.46898 17.3259 9.02298 17.6662 9.36612C17.8374 9.53858 18.0624 9.62494 18.2875 9.62494C18.5102 9.62494 18.7331 9.54042 18.9037 9.37119L21.6233 6.67387C22.1242 6.17709 22.4 5.51598 22.4 4.81244C22.4 4.1089 22.1242 3.44783 21.6233 2.95101Z" fill="#6B6B6B"/>
</svg>
