<svg width="34" height="34" viewBox="0 0 34 34" fill="none" xmlns="http://www.w3.org/2000/svg">
<path d="M32.67 1.36651C32.9185 1.16266 33.0973 0.883363 33.3337 0.666672C33.2026 1.61209 32.9632 2.53825 32.7511 3.46681C31.9882 6.59198 31.0185 9.66178 29.811 12.6264C28.7511 15.2187 27.5019 17.7299 25.9951 20.0638C24.3875 22.5317 22.4754 24.8133 20.1656 26.5661C18.1922 28.079 15.9142 29.1608 13.5142 29.6279C12.5256 29.8205 11.5203 29.9176 10.515 29.9208C9.75134 29.9176 9.02256 29.6448 8.31878 29.3599C7.75742 30.6624 7.29303 32.0131 6.76652 33.3333C6.46956 33.3285 6.20062 33.172 5.92184 33.0829C5.16806 32.7844 4.39534 32.5404 3.65065 32.217C4.5764 29.7868 5.46275 27.3366 6.53546 24.9731C7.74833 22.2957 9.20589 19.7203 11.0634 17.4868C12.6922 15.5221 14.618 13.8335 16.7513 12.5181C19.3474 10.9106 22.2118 9.82551 25.1398 9.13771C23.7754 9.12005 22.4232 9.37527 21.0868 9.64332C18.302 10.2324 15.5967 11.2749 13.1324 12.7757C11.0763 14.0406 9.19831 15.6417 7.64151 17.5486C6.58774 18.8286 5.68699 20.2468 4.93245 21.7443C4.37867 22.8214 3.94686 23.961 3.53095 25.1031C3.39989 25.0027 3.28096 24.8856 3.17944 24.7532C2.27491 23.6143 1.50522 22.335 1.04159 20.9241C0.671136 19.7861 0.55144 18.5453 0.791589 17.3632C1.21583 15.104 2.28324 13.0157 3.67489 11.2613C5.2226 9.32069 7.23849 7.81108 9.47483 6.89616C11.3907 6.09279 13.4513 5.83116 15.4687 5.46037C17.377 5.15379 19.2823 4.81592 21.1967 4.55348C22.8179 4.3111 24.4383 4.0583 26.0496 3.74771C27.7337 3.41063 29.4223 3.02701 31.0193 2.34884C31.6011 2.08881 32.1738 1.78544 32.67 1.36651Z" fill="white"/>
</svg>
